<?xml version="1.0" standalone="no"?>
<!DOCTYPE svg PUBLIC "-//W3C//DTD SVG 20010904//EN"
 "http://www.w3.org/TR/2001/REC-SVG-20010904/DTD/svg10.dtd">
<svg version="1.0" xmlns="http://www.w3.org/2000/svg"
 width="2200.000000pt" height="2200.000000pt" viewBox="0 0 2200.000000 2200.000000"
 preserveAspectRatio="xMidYMid meet">

<g transform="translate(0.000000,2200.000000) scale(0.100000,-0.100000)"
fill="#000000" stroke="none">
<path d="M11130 17340 c-1744 -108 -3338 -916 -4465 -2265 -115 -138 -305
-394 -411 -555 -385 -587 -668 -1227 -840 -1899 -470 -1849 -78 -3813 1066
-5329 211 -281 369 -460 631 -717 484 -474 984 -831 1589 -1134 1085 -542
2293 -756 3505 -620 1723 192 3279 1083 4327 2476 234 312 413 604 602 983
744 1495 856 3240 309 4834 -770 2242 -2764 3873 -5113 4181 -338 45 -877 65
-1200 45z"/>
</g>
</svg>
